<?xml version="1.0" encoding="utf-8"?>
<svg version="1.1" id="ihtfy-logo"
  xmlns="http://www.w3.org/2000/svg"
  xmlns:xlink="http://www.w3.org/1999/xlink" viewBox="0 0 512 512" fill="#21326D">
  <path class="st0" d="M81.5 18h341c3.59 0 6.87 2.03 8.47 5.24c1.6 3.21 1.26 7.05-.9 9.92L321 179l107 67.6c2.75 1.74 4.41 4.76 4.41 8.01v227c0 4.08-2.61 7.7-6.48 8.99c-3.87 1.29-8.13-.04-10.6-3.3L252 271L89 488c-2.44 3.26-6.7 4.6-10.6 3.3c-3.87-1.29-6.48-4.91-6.48-8.99V255c0-3.25 1.67-6.27 4.41-8.01l107-67.6L73.9 33.2c-2.15-2.87-2.5-6.71-.89-9.92C74.6 20 77.9 18 81.5 18zM404 37H100l99.1 132l34.7-21.9l-86.8-54.8c-4.42-2.79-5.75-8.65-2.95-13.1c2.79-4.42 8.64-5.74 13.1-2.95L252 136l94.4-59.6c4.43-2.79 10.3-1.47 13.1 2.95c2.79 4.42 1.47 10.3-2.95 13.1l-86.8 54.8l34.7 21.9L404 37zM293 184L252 158l-41.1 25.9L252 239L293 184zM240 255l-45.3-60.4L91 260v194L240 255zM413 260l-104-65.6l-45.3 60.4l149 199V260z"/>
</svg>